<svg width="8" height="12" viewBox="0 0 8 12" fill="none" xmlns="http://www.w3.org/2000/svg">
<path d="M4.89961 5.99999L0.999609 2.09999C0.816276 1.91665 0.724609 1.68332 0.724609 1.39999C0.724609 1.11665 0.816276 0.883321 0.999609 0.699988C1.18294 0.516654 1.41628 0.424988 1.69961 0.424988C1.98294 0.424988 2.21628 0.516654 2.39961 0.699988L6.99961 5.29999C7.09961 5.39999 7.17044 5.50832 7.21211 5.62499C7.25378 5.74165 7.27461 5.86665 7.27461 5.99999C7.27461 6.13332 7.25378 6.25832 7.21211 6.37499C7.17044 6.49165 7.09961 6.59999 6.99961 6.69999L2.39961 11.3C2.21628 11.4833 1.98294 11.575 1.69961 11.575C1.41628 11.575 1.18294 11.4833 0.999609 11.3C0.816276 11.1167 0.724609 10.8833 0.724609 10.6C0.724609 10.3167 0.816276 10.0833 0.999609 9.89999L4.89961 5.99999Z" fill="#E8EAED"/>
</svg>
