<svg width="159" height="40" viewBox="0 0 159 40" fill="none" xmlns="http://www.w3.org/2000/svg">
<path d="M6.71168 0.0250472C6.46588 -0.0708265 6.20117 0.120921 6.20117 0.389367V5.20223C6.20117 5.5282 6.40916 5.81582 6.69277 5.93087C9.35874 6.90878 11.0604 7.52237 13.7264 8.51946C13.9722 8.61533 14.2369 8.42358 14.2369 8.15514V3.3231C14.2369 2.99713 14.0289 2.70951 13.7453 2.59446L6.71168 0.0250472Z" fill="#FD6E1D"/>
<path fill-rule="evenodd" clip-rule="evenodd" d="M14.2374 10.5284H13.9727C12.063 10.5284 10.1912 10.9311 8.43277 11.6981C6.69328 12.4651 5.12395 13.5964 3.81933 15.0153C1.56933 17.5464 0.226891 20.7678 0.0378151 24.1809C8.45234e-09 24.5835 0 25.0245 0 25.4656V25.6381C0.0189076 29.2622 1.38025 32.752 3.83824 35.3981C6.12605 37.8908 9.20798 39.4631 12.5168 39.885C12.9517 39.9425 13.4055 39.9808 13.8592 40C14.0483 40 14.1996 39.8466 14.1996 39.674V36.817C14.2185 36.6253 14.3508 36.491 14.5399 36.4719L15.126 36.4143C18.1891 36.1842 21.063 34.8612 23.2563 32.6561C25.6576 30.2209 27 26.9228 27 23.4906C27 21.784 26.6786 20.0966 26.0357 18.5243C25.3929 16.952 24.4475 15.5139 23.2752 14.325C20.8739 11.8898 17.6218 10.5284 14.2374 10.5284ZM21.9328 25.0437C21.6303 26.5969 20.8739 28.035 19.7773 29.1471C18.6807 30.2593 17.2626 31.0262 15.7311 31.333C14.1996 31.6398 12.6113 31.4864 11.1744 30.8728C9.7374 30.2593 8.4895 29.243 7.63866 27.9199C6.76891 26.5969 6.31513 25.0437 6.31513 23.4714C6.31513 22.4168 6.52311 21.3813 6.92017 20.4034C7.31723 19.4255 7.90336 18.5435 8.64076 17.7957C9.37815 17.0479 10.2479 16.4534 11.1933 16.0508C12.1576 15.6481 13.1786 15.4372 14.2185 15.4372C15.7878 15.4372 17.3004 15.9165 18.605 16.7794C19.9097 17.6614 20.9118 18.9078 21.5168 20.3651C22.0651 21.8799 22.2353 23.4906 21.9328 25.0437Z" fill="#FD6E1D"/>
<path d="M148.268 19.1729L151.559 23.4856H151.686L154.993 19.1729H158.889L153.909 25.4998L159 31.8268H155.033L151.686 27.5079H151.559L148.213 31.8268H144.261L149.368 25.4998L144.356 19.1729H148.268Z" fill="white"/>
<path d="M142.196 19.1729V31.8268H138.746V19.1729H142.196Z" fill="white"/>
<path d="M126.016 31.8268V19.1729H129.466V29.621H136.461V31.8268H126.016Z" fill="white"/>
<path d="M112.891 31.8268V19.1729H123.694V21.3787H116.341V24.3939H122.977V26.5997H116.341V31.8268H112.891Z" fill="white"/>
<path d="M96.1514 31.8268V19.1729H99.6013V24.3939H106.605V19.1729H110.047V31.8268H106.605V26.5997H99.6013V31.8268H96.1514Z" fill="white"/>
<path d="M93.679 23.6031H90.1893C90.1256 23.253 89.9954 22.942 89.7989 22.6702C89.6024 22.3942 89.3501 22.1594 89.042 21.9658C88.7339 21.7722 88.3781 21.6239 87.9744 21.5209C87.576 21.4179 87.1431 21.3664 86.6757 21.3664C85.8311 21.3664 85.0955 21.5292 84.4687 21.8546C83.842 22.1759 83.3559 22.6454 83.0107 23.2633C82.6654 23.8771 82.4928 24.6226 82.4928 25.5C82.4928 26.4021 82.6654 27.16 83.0107 27.7738C83.3613 28.3875 83.8499 28.8509 84.4767 29.164C85.1035 29.477 85.8285 29.6336 86.6518 29.6336C87.1139 29.6336 87.5415 29.5862 87.9345 29.4914C88.3329 29.3967 88.6861 29.2587 88.9942 29.0775C89.3023 28.8921 89.5572 28.6676 89.7591 28.404C89.9662 28.1404 90.1096 27.8397 90.1893 27.5019L93.679 27.5143C93.5887 28.0951 93.363 28.6553 93.0018 29.1949C92.6459 29.7304 92.1652 30.2102 91.5597 30.6345C90.9595 31.0547 90.2424 31.3883 89.4085 31.6355C88.5799 31.8785 87.6424 32 86.596 32C85.1406 32 83.8393 31.7446 82.692 31.2338C81.55 30.7231 80.647 29.9837 79.9831 29.0157C79.3244 28.0477 78.9951 26.8758 78.9951 25.5C78.9951 24.1201 79.3297 22.9461 79.999 21.9781C80.6683 21.0101 81.5766 20.2728 82.7239 19.7662C83.8712 19.2554 85.1619 19 86.596 19C87.5415 19 88.4179 19.103 89.2253 19.3089C90.0379 19.5149 90.7577 19.8156 91.3844 20.211C92.0112 20.6023 92.5211 21.0822 92.9142 21.6507C93.3125 22.2191 93.5675 22.8699 93.679 23.6031Z" fill="white"/>
<path d="M66.0768 31.8268H62.3799L68.0128 19.1729H72.4586L78.0836 31.8268H74.3868L70.2995 22.0645H70.172L66.0768 31.8268ZM65.8457 26.853H74.578V28.9414H65.8457V26.853Z" fill="white"/>
<path d="M49.5264 31.8268V19.1729H60.5214V21.3787H52.9763V24.3939H59.9557V26.5997H52.9763V29.621H60.5533V31.8268H49.5264Z" fill="white"/>
<path d="M35 31.8268V19.1729H41.4377C42.6753 19.1729 43.7296 19.3562 44.6007 19.7228C45.4718 20.0852 46.1358 20.5898 46.5926 21.2365C47.0547 21.8791 47.2857 22.6206 47.2857 23.4609C47.2857 24.3012 47.052 25.0426 46.5846 25.6852C46.1172 26.3278 45.44 26.8283 44.5529 27.1866C43.6712 27.545 42.6036 27.7242 41.35 27.7242H37.2468V25.5802H40.7923C41.4563 25.5802 42.0033 25.4916 42.4336 25.3145C42.8691 25.1332 43.1931 24.884 43.4056 24.5669C43.6234 24.2456 43.7323 23.8769 43.7323 23.4609C43.7323 23.0407 43.6234 22.6741 43.4056 22.3611C43.1931 22.0439 42.8691 21.7988 42.4336 21.6258C41.998 21.4487 41.4456 21.3601 40.7764 21.3601H38.4499V31.8268H35Z" fill="white"/>
</svg>
